<?xml version="1.0" encoding="UTF-8" standalone="no"?>
<svg
   version="1.1"
   viewBox="-30 -210 100 100"
   id="svg6"
   sodipodi:docname="dice.svg"
   width="100"
   height="100"
   inkscape:version="1.2 (dc2aedaf03, 2022-05-15)"
   xmlns:inkscape="http://www.inkscape.org/namespaces/inkscape"
   xmlns:sodipodi="http://sodipodi.sourceforge.net/DTD/sodipodi-0.dtd"
   xmlns="http://www.w3.org/2000/svg"
   xmlns:svg="http://www.w3.org/2000/svg">
  <defs
     id="defs10" />
  <sodipodi:namedview
     id="namedview8"
     pagecolor="#ffffff"
     bordercolor="#666666"
     borderopacity="1.0"
     inkscape:showpageshadow="2"
     inkscape:pageopacity="0.0"
     inkscape:pagecheckerboard="0"
     inkscape:deskcolor="#d1d1d1"
     showgrid="false"
     inkscape:zoom="5.12"
     inkscape:cx="45.703125"
     inkscape:cy="48.242188"
     inkscape:window-width="1600"
     inkscape:window-height="835"
     inkscape:window-x="0"
     inkscape:window-y="0"
     inkscape:window-maximized="1"
     inkscape:current-layer="g4" />
  <g
     transform="matrix(1,0,0,-1,-326.71428,1488)"
     id="g4">
    <path
       fill="currentColor"
       d="m 338.24788,1617.6678 q 0,1.1393 0.8307,1.7088 0.8307,0.5696 1.82754,0.5696 2.08861,0 3.8924,-1.5664 1.85127,-1.5665 1.85127,-3.5127 0,-2.136 -2.75316,-2.136 -2.18354,0 -3.8924,1.519 -1.75635,1.4715 -1.75635,3.4177 z m -19.65188,4.2246 q 0,0.9494 0.64082,1.6139 0.64082,0.6647 1.68513,0.6647 2.08861,0 3.8924,-1.5191 1.75633,-1.4241 1.75633,-3.2278 0,-2.136 -2.65823,-2.136 -1.99366,0 -3.70253,1.4714 -1.61392,1.4715 -1.61392,3.1329 z m 5.64874,8.6392 q 0,1.3291 0.78322,2.0175 0.78323,0.6883 2.11234,0.6883 2.56329,0 4.50949,-1.8039 1.9462,-1.8039 1.9462,-3.8449 0,-2.3735 -3.08544,-2.3735 -1.23417,0 -2.34969,0.4036 -1.11549,0.4034 -2.06486,1.3528 -1.85126,1.7564 -1.85126,3.5601 z m 41.62972,-13.2435 q -0.94936,0 -1.68512,0.712 -0.73576,0.712 -0.73576,2.3259 0,0.9967 0.35601,1.9224 0.35601,0.9256 0.97309,1.6376 0.6171,0.7121 1.3766,1.1392 0.75949,0.4273 1.56645,0.4273 1.3291,0 1.89873,-0.9969 0.56963,-0.9967 0.56963,-2.0886 0,-0.9968 -0.35602,-1.8986 -0.35601,-0.9019 -0.94937,-1.6139 -0.59336,-0.7122 -1.37658,-1.1392 -0.78322,-0.4272 -1.63766,-0.4272 z m 15.23734,14.1454 q -0.94938,0 -1.63765,0.6883 -0.68829,0.6884 -0.68829,2.2548 0,0.9018 0.33228,1.7564 0.33227,0.8543 0.85442,1.5189 0.52216,0.6645 1.23419,1.0917 0.71201,0.4274 1.51897,0.4274 1.18671,0 1.8038,-0.8782 0.61709,-0.8782 0.61709,-1.9699 0,-0.9495 -0.33228,-1.8514 -0.33228,-0.902 -0.9019,-1.5664 -0.56962,-0.6646 -1.30537,-1.068 -0.73577,-0.4036 -1.49526,-0.4036 z m -3.51266,19.2723 q -1.09177,0 -1.9462,0.8305 -0.85443,0.8308 -0.85443,2.6346 0,2.0411 1.56646,3.8449 1.61392,1.7565 3.27531,1.7565 0.71203,0 1.23419,-0.3086 0.52214,-0.3087 0.87815,-0.807 0.35602,-0.4985 0.54589,-1.1155 0.18987,-0.6171 0.18987,-1.2342 0,-1.1867 -0.42721,-2.2073 -0.42721,-1.0206 -1.1155,-1.7802 -0.6883,-0.7594 -1.56646,-1.1866 -0.87817,-0.4271 -1.78007,-0.4271 z m -16.75632,-15.4274 q -0.94937,0 -1.875,0.7833 -0.92563,0.7833 -0.92563,2.587 0,1.9463 1.51899,3.8449 1.37659,1.8039 3.32278,1.8039 0.75949,0 1.28164,-0.3323 0.52217,-0.3323 0.87816,-0.8306 0.35602,-0.4984 0.52215,-1.0919 0.16615,-0.5934 0.16615,-1.163 0,-1.1866 -0.42721,-2.2072 -0.42722,-1.0206 -1.13925,-1.78 -0.71202,-0.7595 -1.59018,-1.1869 -0.87816,-0.4272 -1.7326,-0.4272 z m -25.82278,1.8039 q 0,1.4241 0.9731,2.2072 0.97311,0.7833 2.34969,0.7833 2.13607,0 4.12974,-1.614 1.9462,-1.6613 1.9462,-3.8449 0,-1.5189 -1.0443,-2.2072 -1.04429,-0.6882 -2.46835,-0.6882 -2.37341,0 -4.12975,1.7562 -1.75633,1.7089 -1.75633,3.6076 z m -22.16771,5.0316 q 0,1.3767 0.97311,2.2073 0.97309,0.8307 2.3022,0.8307 2.32594,0 4.27215,-1.7088 1.89874,-1.6615 1.89874,-3.7974 0,-1.5191 -1.09177,-2.2311 -1.09177,-0.712 -2.51583,-0.712 -2.23101,0 -4.08227,1.7088 -1.75633,1.614 -1.75633,3.7025 z m 20.4114,27.4367 q 0,3.9874 3.56012,6.5506 3.65505,2.6583 8.78164,2.6583 4.69936,0 7.45252,-2.326 2.80063,-2.3733 2.80063,-5.3164 0,-3.6551 -3.84493,-6.1234 -3.70252,-2.3735 -8.68671,-2.3735 -4.12974,0 -7.16772,1.8513 -2.89555,1.8512 -2.89555,5.0791 z m 55.06326,-30.9019 q 0,4.0823 -0.35601,7.7849 -0.35602,3.7026 -0.35602,7.5949 0,3.5127 -0.35601,5.9335 -0.35601,2.4209 -1.02056,3.9162 -0.66456,1.4952 -1.6614,2.1598 -0.99684,0.6644 -2.27848,0.6644 -1.13925,0 -2.44462,-0.6407 -1.30537,-0.6409 -2.87184,-1.8749 l -12.86391,-10.2058 q -3.51267,-2.8006 -5.74367,-4.8655 -2.23101,-2.0648 -3.08544,-3.7261 -1.70885,-3.0855 -1.70885,-8.6394 0,-3.5126 1.42403,-11.2025 1.80381,-9.8259 1.89874,-10.0158 1.85126,-6.8354 4.74684,-6.8354 l 0.52215,0.094 q 1.47151,0.1898 3.10917,0.9731 1.63766,0.7832 3.44146,2.0172 1.8038,1.2343 4.24841,3.3703 2.44462,2.1361 5.53006,5.2691 2.75317,2.7057 4.41456,4.4383 1.66139,1.7325 2.18355,2.4921 1.09177,1.6139 1.85125,3.3228 0.80696,1.8038 1.09179,3.8923 0.2848,2.0887 0.2848,4.0823 z m -35.83859,-27.9114 -0.28481,3.228 -0.33228,2.8006 q -0.0949,1.0442 -0.18988,2.0173 -0.0949,0.9732 -0.28481,1.9225 l -0.80695,3.8451 -0.7595,5.3164 q -0.85444,5.7435 -2.37342,9.0189 -1.519,3.2752 -4.08228,4.1772 -3.22785,1.1392 -9.84968,2.8955 -6.62183,1.7564 -16.82752,4.3197 -2.23101,0.5221 -3.86867,0.807 -1.63766,0.2847 -2.7769,0.2847 -1.89874,0 -2.68196,-1.1154 -0.78323,-1.1155 -0.78323,-2.4447 0,-0.9493 0.47468,-2.6582 0.47468,-1.7088 1.37658,-4.2246 0.37975,-1.0443 0.85442,-3.0144 0.4747,-1.9698 1.28166,-4.8654 l 2.23101,-7.5 q 1.04431,-3.5128 2.82437,-6.2895 1.78006,-2.777 4.96044,-4.4384 1.09177,-0.5695 3.0617,-1.2105 1.96994,-0.6407 4.91298,-1.4476 2.94304,-0.8072 5.45886,-1.4004 2.51582,-0.5932 4.74684,-1.0206 4.46202,-0.8544 7.45253,-1.4478 2.9905,-0.5933 3.65506,-0.4034 1.3291,0 2.04114,0.4747 0.71202,0.4747 0.56962,2.3733 z m -43.90821,50.6963 q 0,-2.5159 2.13607,-3.9399 2.04114,-1.4241 9.01898,-3.5127 3.46518,-1.0442 7.02531,-1.9936 3.56013,-0.9495 7.3576,-1.8513 3.74999,-0.8545 6.43195,-1.3054 2.68197,-0.451 4.34337,-0.451 3.56012,0 5.55378,0.8071 2.13609,0.8068 5.26899,3.038 1.66141,1.1392 4.46203,3.4412 2.80063,2.3024 6.83543,5.7201 8.11709,6.8829 9.01899,8.0221 0.99684,1.1867 1.59019,2.5395 0.59336,1.3529 0.49842,2.8719 -0.14241,3.1803 -2.6345,5.4827 -2.49208,2.3022 -7.76107,4.3434 -1.75632,0.6644 -3.79747,1.234 -2.04113,0.5696 -4.31961,1.0918 -2.27849,0.5221 -4.10602,0.8545 -1.82752,0.3323 -3.20411,0.522 -2.65823,0.2849 -5.55379,0.2849 -8.87659,0 -15.94937,-3.9398 -3.51264,-1.9938 -7.14399,-4.7942 -3.63132,-2.8008 -7.47625,-6.5509 -7.59493,-7.5474 -7.59493,-11.9144 z m 83.40187,-19.8417 q 0,-4.0824 -0.4747,-7.3102 -0.47467,-3.2281 -1.37657,-5.6487 -1.61392,-4.3197 -7.31013,-9.5886 l -8.40189,-7.7848 q -4.46202,-4.1772 -8.54431,-6.2184 -4.08227,-2.0412 -7.9272,-2.0412 -1.8038,0 -4.10602,0.2849 -2.30221,0.2847 -5.19779,0.807 l -9.20885,1.7562 q -1.75633,0.3323 -3.75001,0.8307 -1.99367,0.4984 -4.0348,1.0682 -2.04113,0.5694 -4.08228,1.2104 -2.04113,0.6407 -3.84493,1.2578 -1.80379,0.6171 -3.32279,1.1867 -1.51898,0.5696 -2.7057,1.1392 -2.51581,1.1391 -4.74683,4.4619 -2.27847,3.4178 -4.17721,8.5444 l -4.60443,12.5791 q -2.70569,7.405 -2.70569,13.6235 -0.0474,1.7088 0.0713,3.4177 0.11873,1.7088 0.35601,3.4177 1.23419,9.3039 11.43987,18.3702 5.17404,4.6044 9.39874,7.7612 4.22468,3.1567 7.59492,4.8654 6.83544,3.4178 13.86076,3.4178 3.56013,0 8.02215,-0.6646 4.46202,-0.6644 9.96836,-1.9462 5.50632,-1.2816 9.68354,-2.8718 4.1772,-1.5901 7.16772,-3.5839 5.981,-4.0346 8.92404,-10.3006 1.42405,-3.133 2.30221,-7.1678 0.87818,-4.0346 1.11551,-9.0663 0.23735,-4.9843 0.40348,-8.9005 0.16615,-3.9161 0.21361,-6.9064 z"
       id="path2"
       style="stroke-width:0.0474684;fill:#ff00ff" />
  </g>
</svg>
